<svg id="Capa_1" height="512" width="512" fill="#6b6b6a" xmlns="http://www.w3.org/2000/svg"><path d="M500.576 196.432l-47.017-11.541a210.219 210.219 0 00-7.66-18.245l24.488-40.815a15 15 0 00-2.256-18.324l-63.64-63.64a15 15 0 00-18.324-2.256L345.353 66.1a210.249 210.249 0 00-18.246-7.661l-11.54-47.015A15 15 0 00301 0h-90a15 15 0 00-14.567 11.424l-11.54 47.015a210.249 210.249 0 00-18.246 7.661l-40.814-24.489a15 15 0 00-18.324 2.256l-63.64 63.64a15 15 0 00-2.256 18.324l24.488 40.815a210.219 210.219 0 00-7.66 18.245l-47.017 11.541A15.002 15.002 0 000 211v90a15.002 15.002 0 0011.424 14.568l47.017 11.541a210.219 210.219 0 007.66 18.245l-24.488 40.815a15 15 0 002.256 18.324l63.64 63.64a15 15 0 0018.324 2.256l40.814-24.489a210.249 210.249 0 0018.246 7.661l11.54 47.015C198.121 507.428 204.299 512 211 512h90c6.862 0 12.918-4.73 14.567-11.424l11.54-47.015a210.249 210.249 0 0018.246-7.661l40.814 24.489a14.998 14.998 0 0018.324-2.256l63.64-63.64a15 15 0 002.256-18.324l-24.488-40.815a210.219 210.219 0 007.66-18.245l47.017-11.541A15.002 15.002 0 00512 301v-90a15.002 15.002 0 00-11.424-14.568zM202.68 268.481l45 30a15 15 0 0016.641 0l45-30a15 15 0 006.68-12.481v-86.187c27.9 19.355 45 51.198 45 86.187 0 57.897-47.103 105-105 105s-105-47.103-105-105c0-34.988 17.1-66.832 45-86.187V256a14.998 14.998 0 006.679 12.481zM256 391c10.308 0 20.348-1.166 30-3.365V482h-60v-94.365A134.917 134.917 0 00256 391zm226-101.763l-43.568 10.694a15 15 0 00-10.729 10.057c-3.042 9.647-7.143 19.431-12.188 29.078a14.998 14.998 0 00.43 14.669l22.694 37.825-47.077 47.077-37.824-22.695a15.003 15.003 0 00-14.67-.429c-7.649 4.001-15.382 7.396-23.066 10.151v-48.756c44.413-22.129 75-68.011 75-120.909 0-27.368-8.182-53.744-23.66-76.275-15.099-21.978-36.088-38.877-60.697-48.868a15 15 0 00-20.643 13.899v103.217l-30 20-30-20V144.755a15 15 0 00-20.643-13.899c-24.609 9.991-45.599 26.89-60.697 48.868C129.182 202.256 121 228.632 121 256c0 52.898 30.587 98.78 75 120.909v48.756c-7.684-2.755-15.417-6.151-23.066-10.151a15.003 15.003 0 00-14.67.429l-37.824 22.695-47.077-47.077 22.694-37.825a15.001 15.001 0 00.43-14.669c-5.046-9.647-9.146-19.431-12.188-29.078a15 15 0 00-10.729-10.057L30 289.237v-66.473l43.568-10.694a15 15 0 0010.729-10.057c3.042-9.647 7.143-19.431 12.188-29.078a14.998 14.998 0 00-.43-14.669l-22.694-37.825 47.077-47.077 37.824 22.695a15 15 0 0014.67.429c9.647-5.046 19.431-9.146 29.078-12.188a15.002 15.002 0 0010.058-10.73L222.764 30h66.473l10.694 43.568a15 15 0 0010.058 10.73c9.647 3.042 19.431 7.142 29.078 12.188a15.003 15.003 0 0014.67-.429l37.824-22.695 47.077 47.077-22.694 37.825a15.001 15.001 0 00-.43 14.669c5.046 9.647 9.146 19.431 12.188 29.078a15 15 0 0010.729 10.057L482 222.763z"/></svg>