<svg height="479pt" viewBox="-8 0 479 479.936" width="479pt" fill="#6b6b6a" xmlns="http://www.w3.org/2000/svg"><path d="M458.402 318.586l-25.086-6.274a108.64 108.64 0 00-8.312-20l13.312-22.183a8.006 8.006 0 00-1.199-9.777l-24.969-25a8 8 0 00-9.777-1.2l-22.183 13.313a114.643 114.643 0 00-8.856-4.266 109.364 109.364 0 00-11.2-4.047l-6.273-25.09a7.993 7.993 0 00-7.757-6.062h-35.29a8.001 8.001 0 00-7.761 6.063l-6.27 25.09a108.527 108.527 0 00-20 8.312l-22.183-13.313a8 8 0 00-9.778 1.2l-25 24.968a8 8 0 00-1.199 9.778l13.313 22.183a108.258 108.258 0 00-8.313 20l-25.09 6.27a8.001 8.001 0 00-6.062 7.761v35.313c0 3.672 2.5 6.871 6.062 7.758l25.09 6.273a108.481 108.481 0 008.313 20L218.62 417.84a8 8 0 001.2 9.777l24.968 24.969a8.001 8.001 0 009.774 1.2l22.183-13.313a108.751 108.751 0 0020 8.312l6.274 25.086a8.01 8.01 0 007.761 6.066h35.313a8.001 8.001 0 007.758-6.066l6.273-25.086a108.751 108.751 0 0020-8.312l22.184 13.312a8.006 8.006 0 009.777-1.2l24.965-24.968a8.001 8.001 0 001.203-9.777l-13.313-22.184a108.751 108.751 0 008.313-20l25.086-6.273a7.993 7.993 0 006.062-7.758v-35.281a7.992 7.992 0 00-6-7.758zm-9.933 36.82l-23.543 5.89a7.992 7.992 0 00-5.824 5.794 92.656 92.656 0 01-10.227 24.652 8.018 8.018 0 000 8.211l12.496 20.8-16.101 16.169-20.801-12.496a7.993 7.993 0 00-8.207 0 92.724 92.724 0 01-24.657 10.222 7.998 7.998 0 00-5.793 5.825L339.875 464h-22.816l-5.887-23.543a8.004 8.004 0 00-5.793-5.824 92.734 92.734 0 01-24.656-10.227 8.01 8.01 0 00-8.207 0l-20.801 12.496-16.168-16.101L248.043 400a7.993 7.993 0 000-8.207 92.724 92.724 0 01-10.223-24.656 8.004 8.004 0 00-5.824-5.793l-23.527-5.938v-22.812l23.543-5.89a7.998 7.998 0 005.824-5.794 92.646 92.646 0 0110.223-24.652 8 8 0 000-8.211l-12.497-20.8 16.106-16.169 20.8 12.496a7.993 7.993 0 008.208 0 92.724 92.724 0 0124.656-10.222 8.004 8.004 0 005.793-5.825L317.059 224h22.816l5.89 23.543a7.999 7.999 0 005.79 5.824 92.302 92.302 0 0124.648 10.219 8.014 8.014 0 008.219 0l20.797-12.496 16.168 16.11L408.89 288a8.01 8.01 0 000 8.207 92.734 92.734 0 0110.226 24.656 7.998 7.998 0 005.824 5.793l23.528 5.938zm0 0"/><path d="M328.469 280c-35.348 0-64 28.652-64 64s28.652 64 64 64c35.344 0 64-28.652 64-64-.04-35.328-28.672-63.96-64-64zm0 112c-26.512 0-48-21.492-48-48s21.488-48 48-48c26.508 0 48 21.492 48 48-.028 26.5-21.504 47.973-48 48zm40-296h16v128h-16zm0 0"/><path d="M32.469 408v32a8 8 0 008 8h168v-16h-160v-24h96a8.024 8.024 0 003.574-.8l32-16a8 8 0 000-14.321l-32-16a8.012 8.012 0 00-3.574-.879h-96V88h304c17.672 0 32-14.328 32-32V40a8 8 0 00-8-8h-24v16h16v8c0 8.836-7.164 16-16 16s-16-7.164-16-16V32c0-8.836 7.164-16 16-16h32c8.836 0 16 7.164 16 16v184h16V32c0-17.672-14.328-32-32-32h-352c-17.676 0-32 14.328-32 32v24c0 17.672 14.324 32 32 32v272h-8c-13.254 0-24 10.746-24 24s10.746 24 24 24zm-16-352V32c0-8.836 7.164-16 16-16h292.445a31.661 31.661 0 00-4.445 16v24a31.661 31.661 0 004.445 16H32.47c-8.836 0-16-7.164-16-16zm142.11 328l-16 8h-6.11v-16h6.11zm-142.11 0a8 8 0 018-8h96v16h-96a8 8 0 01-8-8zm0 0"/><path d="M.469 120h16v160h-16zm312 8v-16h-104a8.001 8.001 0 00-5.656 2.344l-14.618 14.617c-34.945-25.613-83.355-21.875-113.953 8.8a8 8 0 000 11.31l56.57 56.57A8.002 8.002 0 00136.47 208h80a8 8 0 008-8 87.625 87.625 0 00-24.227-60.465L211.782 128zm-104.45 64h-68.238l-48.258-48.258c24.594-19.691 59.157-21.035 85.207-3.316l-21.917 21.918 11.312 11.312 22.848-22.847A71.721 71.721 0 01208.02 192zm120.45-80h16v16h-16zm-240 120h16v16h-16zm32 0h80v16h-80zm-48 32h128v16h-128zm0 0"/><path d="M248.469 144h16v16h-16zm32 0h64v16h-64zm-32 32h96v16h-96zm-176 120h104v16h-104zm0 0"/></svg>