<svg id="Capa_1" height="512" width="512" fill="#6b6b6a" xmlns="http://www.w3.org/2000/svg"><circle cx="426" cy="185" r="15"/><circle cx="86" cy="185" r="15"/><path d="M384.314 318.241c19.877-19.151 35.258-42.567 44.907-68.241H456c19.299 0 35-15.701 35-35v-60c0-19.299-15.701-35-35-35h-26.784c-12.341-32.75-34.165-61.941-62.288-83.052C334.728 12.776 296.369 0 256 0s-78.727 12.776-110.928 36.948C116.949 58.059 95.125 87.25 82.783 120H56c-19.299 0-35 15.701-35 35v60c0 19.299 15.701 35 35 35h26.778c9.649 25.674 25.031 49.09 44.908 68.241A185.482 185.482 0 00151 337.289v35.778l-64.113 14.794c-18.653 4.306-35.489 14.927-47.406 29.907C27.563 432.75 21 451.543 21 470.686V497c0 8.284 6.716 15 15 15h440c8.284 0 15-6.716 15-15v-26.313c0-19.144-6.563-37.937-18.48-52.918-11.918-14.98-28.754-25.602-47.406-29.906L361 373.068v-35.779a185.251 185.251 0 0023.314-19.048zm-276.476-87.648A15 15 0 0093.5 220H56c-2.757 0-5-2.243-5-5v-60c0-2.757 2.243-5 5-5h37.5a15 15 0 0014.338-10.593C127.951 73.967 187.493 30 256 30c68.508 0 128.049 43.967 148.161 109.406A15 15 0 00418.499 150H456c2.757 0 5 2.243 5 5v60c0 2.757-2.243 5-5 5h-37.501a15 15 0 00-14.338 10.594c-12.94 42.103-43.764 76.767-83.179 95.101.002-.232.018-.462.018-.695a64.577 64.577 0 00-6.976-29.24C354.756 274.459 381 232.091 381 185c0-68.925-56.075-125-125-125s-125 56.075-125 125c0 47.092 26.243 89.459 66.976 110.76A64.58 64.58 0 00191 325c0 .233.015.462.018.695-39.415-18.334-70.239-52.999-83.18-95.102zM256 360c-19.299 0-35-15.701-35-35s15.701-35 35-35 35 15.701 35 35-15.701 35-35 35zm37.807-87.823A64.704 64.704 0 00271 261.767V245c0-8.284-6.716-15-15-15s-15 6.716-15 15v16.766a64.698 64.698 0 00-22.807 10.411C183.676 257.237 161 223.163 161 185c0-52.383 42.617-95 95-95s95 42.617 95 95c0 38.163-22.676 72.237-57.193 87.177zM169.373 399.616A15 15 0 00181 385v-30.866a183.62 183.62 0 0021.747 8.07c9.005 12.851 22.529 22.3 38.253 26.03V482h-90v-78.144zM51 470.686c0-25.761 17.531-47.799 42.633-53.592L121 410.779V482H51zm410 .001V482h-70v-71.22l27.367 6.315c25.102 5.792 42.633 27.83 42.633 53.592zm-118.373-71.07l18.373 4.24V482h-90v-93.766c15.723-3.73 29.248-13.18 38.253-26.03a183.555 183.555 0 0021.747-8.07v30.867a15 15 0 0011.627 14.616z"/></svg>