<svg width="512" height="512" fill="none" xmlns="http://www.w3.org/2000/svg"><path d="M504 208V32c0-13.232-10.768-24-24-24H176c-13.232 0-24 10.768-24 24v40.28a120.367 120.367 0 00-8-.28C69.008 72 8 133.008 8 208c0 63.952 44.424 117.592 104 132.04V368c0 4.296 1.224 8.272 3.208 11.768A23.952 23.952 0 00104 400v64c0 22.056 17.944 40 40 40s40-17.944 40-40v-64a23.952 23.952 0 00-11.208-20.232C174.776 376.272 176 372.296 176 368v-27.96a136.27 136.27 0 0079.304-54.232l5.928 11.52a120.128 120.128 0 00-7.352 17.832L232 322.168v59.672l21.872 7.008a119.425 119.425 0 007.352 17.832l-10.496 20.392 42.192 42.192 20.392-10.496a120.128 120.128 0 0017.832 7.352l7.024 21.88h59.672l7.008-21.872a119.762 119.762 0 0017.832-7.352l20.392 10.496 42.184-42.192-10.488-20.392a119.776 119.776 0 007.352-17.832l21.88-7.024V322.16l-21.872-7.008a120.126 120.126 0 00-7.352-17.832l10.488-20.392-42.184-42.192-20.392 10.496a119.979 119.979 0 00-17.832-7.352L402.96 232H480c13.232 0 24-10.768 24-24zm-328 24h52.528c-10.56 37.592-44.68 64-84.528 64-48.52 0-88-39.48-88-88s39.48-88 88-88c2.56 0 5.232.176 8 .456V208c0 13.232 10.768 24 24 24zm-8 232c0 13.232-10.768 24-24 24s-24-10.768-24-24v-64a8 8 0 018-8h32a8 8 0 018 8v64zm-8-96a8 8 0 01-8 8h-16a8 8 0 01-8-8v-25.024c5.256.616 10.576 1.024 16 1.024 5.416 0 10.736-.432 16-1.056V368zm-16-40c-66.168 0-120-53.832-120-120S77.832 88 144 88c2.536 0 5.2.128 8 .344v16.016a98.016 98.016 0 00-8-.36c-57.344 0-104 46.656-104 104s46.656 104 104 104a103.523 103.523 0 00101.024-80H261.4c-11.224 55.312-60.136 96-117.4 96zm133.616-96h55.416l-1.88 5.872c-6.184 1.992-12.16 4.448-17.832 7.352l-20.392-10.496-22.288 22.288c3.096-7.984 5.432-16.344 6.976-25.016zm114.576 18.848l4.136 1.168a103.275 103.275 0 0122.376 9.224l3.744 2.096 17.56-9.032 25.688 25.688-9.032 17.552 2.096 3.752a103.155 103.155 0 019.224 22.376l1.168 4.136L488 333.832v36.328l-18.848 6.032-1.168 4.136c-2.24 7.92-5.344 15.448-9.216 22.376l-2.104 3.744 9.032 17.56-25.688 25.696-17.552-9.04-3.752 2.096c-6.936 3.88-14.464 6.992-22.376 9.232l-4.136 1.168-6.024 18.84H349.84l-6.032-18.848-4.136-1.168c-7.92-2.24-15.448-5.344-22.376-9.216l-3.744-2.104-17.56 9.04-25.696-25.696 9.04-17.56-2.104-3.744a103.86 103.86 0 01-9.224-22.376l-1.168-4.136-18.84-6.024V333.84l18.848-6.032 1.168-4.136c2.24-7.92 5.344-15.448 9.216-22.376l2.104-3.744-9.04-17.56 25.696-25.688 17.56 9.032 3.744-2.096c7.07-3.944 14.58-7.04 22.376-9.224l4.136-1.168L349.832 232h36.328l6.032 18.848zM338.168 216H176c-4.416 0-8-3.592-8-8V32c0-4.408 3.584-8 8-8h304c4.416 0 8 3.592 8 8v176c0 4.408-3.584 8-8 8H338.168z" fill="#000"/><path d="M432 40c-22.056 0-40 17.944-40 40 0 4.48.912 8.72 2.272 12.744l-35.568 20.752A31.868 31.868 0 00336 104c-7.712 0-14.696 2.848-20.224 7.408L277.704 83.72A31.745 31.745 0 00280 72c0-17.648-14.352-32-32-32s-32 14.352-32 32a31.914 31.914 0 0013.44 25.968l-20.808 54.096c-.216-.008-.416-.064-.632-.064-13.232 0-24 10.768-24 24s10.768 24 24 24 24-10.768 24-24a23.839 23.839 0 00-8.456-18.136l20.864-54.232c1.192.144 2.36.368 3.592.368a31.683 31.683 0 0020.224-7.408l38.072 27.688A31.742 31.742 0 00304 136c0 17.648 14.352 32 32 32s32-14.352 32-32c0-3.008-.552-5.864-1.328-8.632l35.656-20.8C409.656 114.744 420.184 120 432 120c22.056 0 40-17.944 40-40s-17.944-40-40-40zM208 184a8.008 8.008 0 010-16 8.008 8.008 0 010 16zm40-96c-8.824 0-16-7.176-16-16s7.176-16 16-16 16 7.176 16 16-7.176 16-16 16zm88 64c-8.824 0-16-7.176-16-16s7.176-16 16-16 16 7.176 16 16-7.176 16-16 16zm96-48c-13.232 0-24-10.768-24-24s10.768-24 24-24 24 10.768 24 24-10.768 24-24 24zm-40 80h16v16h-16v-16zm32 0h16v16h-16v-16zm32 0h16v16h-16v-16zm-64-32h80v16h-80v-16zM88 208H72c0 39.696 32.296 72 72 72v-16c-30.872 0-56-25.12-56-56zm336 144h-16c0 22.056-17.944 40-40 40v16c30.872 0 56-25.128 56-56z" fill="#000"/><path d="M280 352c0 48.52 39.48 88 88 88s88-39.48 88-88-39.48-88-88-88-88 39.48-88 88zm88-72c39.704 0 72 32.296 72 72s-32.296 72-72 72-72-32.296-72-72 32.296-72 72-72z" fill="#000"/></svg>