<svg width="512" height="512" fill="none" xmlns="http://www.w3.org/2000/svg"><g clip-path="url(#clip0_1_7)" fill="#000"><path d="M510.609 228.966c-6.088-58.063-32.221-112.818-73.581-154.18-95.297-99.319-266.769-99.315-362.063 0l-.101.102-1.837-25.592a7.492 7.492 0 00-8.019-6.943 7.5 7.5 0 00-6.944 8.018l3.013 41.968a7.499 7.499 0 006.945 6.944l41.967 3.013c4.079.31 7.736-2.803 8.019-6.944a7.508 7.508 0 00-1.812-5.447 7.495 7.495 0 00-5.133-2.571l-25.591-1.837.1-.1c89.712-93.502 251.137-93.499 340.847 0 78.942 76.659 93.31 207.282 33.358 299.219a7.488 7.488 0 00.203 8.331 7.48 7.48 0 002.12 2.018c3.769 2.121 7.219 1.346 10.349-2.323 30.609-48.328 44.161-106.455 38.16-163.676zm-63.636 194.276a7.499 7.499 0 00-6.944-6.943l-41.969-3.014c-4.113-.309-7.721 2.813-8.018 6.944a7.499 7.499 0 006.943 8.018l25.511 1.833C213.891 618.596-88.194 377.423 49.083 132.108a7.505 7.505 0 00-.412-8.324 7.5 7.5 0 00-12.458.617C7.425 172.466-4.823 229.759 1.723 285.725c23.353 208.534 280.854 300.911 431.459 154.893l1.843 25.666a7.492 7.492 0 008.018 6.943 7.495 7.495 0 006.944-8.018l-3.014-41.967z"/><path d="M341.009 214.27l.171.001c10.867-.001 21.088-4.213 28.793-11.874 12.768-12.694 15.685-32.631 7.093-48.48a7.5 7.5 0 00-10.12-2.93 7.503 7.503 0 00-3.069 10.079c5.442 10.037 3.599 22.658-4.481 30.693-4.873 4.845-11.34 7.51-18.218 7.51h-.108c-22.819.103-34.563-28.331-18.271-44.321a25.616 25.616 0 0114.495-7.24 7.504 7.504 0 006.352-8.496 7.5 7.5 0 00-8.496-6.351c-8.734 1.262-16.663 5.221-22.927 11.45-15.983 15.892-16.035 41.849-.113 57.863 7.709 7.757 17.973 12.052 28.899 12.096z"/><path d="M257.933 153.847a7.496 7.496 0 00-5.66 7.258l-.042 23.813a7.505 7.505 0 005.605 7.272l11.99 3.133a74.36 74.36 0 005.109 12.414l-6.311 10.623a7.502 7.502 0 001.13 9.119l16.809 16.907a7.496 7.496 0 009.112 1.182l10.659-6.249a74.322 74.322 0 0012.384 5.182l3.062 12.008a7.502 7.502 0 007.238 5.646l23.813.097h.03a7.501 7.501 0 007.261-5.619l3.1-11.961a73.926 73.926 0 0012.378-5.073l10.646 6.34a7.491 7.491 0 009.126-1.125l16.867-16.771a7.498 7.498 0 001.178-9.119l-6.277-10.682a73.889 73.889 0 005.145-12.35l11.979-3.03a7.506 7.506 0 005.661-7.258l.042-23.813a7.503 7.503 0 00-5.605-7.272l-11.99-3.132a74.255 74.255 0 00-5.11-12.415l6.312-10.622a7.499 7.499 0 00-1.13-9.12l-16.809-16.906a7.496 7.496 0 00-9.111-1.182l-10.66 6.248a74.233 74.233 0 00-12.384-5.181L360.418 90.2a7.497 7.497 0 00-7.238-5.646l-23.813-.097h-.03a7.5 7.5 0 00-7.261 5.618l-3.1 11.962a73.842 73.842 0 00-12.378 5.073l-10.645-6.34a7.5 7.5 0 00-9.127 1.125l-16.867 16.771a7.498 7.498 0 00-1.178 9.119l6.278 10.682a73.893 73.893 0 00-5.146 12.35l-11.98 3.03zm19.862 10.448a7.496 7.496 0 005.442-5.469 58.984 58.984 0 016.885-16.528 7.498 7.498 0 00.06-7.701l-5.522-9.397 8.613-8.563 9.364 5.576a7.498 7.498 0 007.702-.015 58.995 58.995 0 0116.566-6.789 7.5 7.5 0 005.5-5.41l2.726-10.518 12.182.05 2.696 10.57a7.504 7.504 0 005.452 5.424 59.312 59.312 0 0116.552 6.927 7.494 7.494 0 007.7.067l9.38-5.498 8.611 8.662-5.553 9.348a7.51 7.51 0 00.023 7.701 59.317 59.317 0 016.831 16.594 7.506 7.506 0 005.393 5.482l10.556 2.757-.021 12.182-10.533 2.665a7.5 7.5 0 00-5.442 5.468 58.96 58.96 0 01-6.885 16.529 7.506 7.506 0 00-.06 7.701l5.522 9.397-8.613 8.563-9.364-5.576a7.496 7.496 0 00-7.701.015 58.958 58.958 0 01-16.566 6.788 7.504 7.504 0 00-5.501 5.411l-2.726 10.518-12.182-.05-2.696-10.569a7.494 7.494 0 00-5.45-5.424 59.338 59.338 0 01-16.553-6.928 7.496 7.496 0 00-7.701-.067l-9.38 5.498-8.612-8.662 5.553-9.349a7.496 7.496 0 00-.023-7.699 59.392 59.392 0 01-6.83-16.595 7.501 7.501 0 00-5.393-5.482l-10.555-2.757.021-12.182 10.532-2.665zM173.944 361.522c12.549 5.55 26.505 5.874 39.288.947 62.593-26.893 27.526-117.754-36.872-95.687-26.433 10.185-39.667 39.934-29.501 66.315 4.926 12.784 14.545 22.878 27.085 28.425zm7.81-80.742c18.215-7.166 39.806 1.913 46.981 20.768 7.192 18.663-2.183 39.714-20.896 46.925-9.07 3.494-18.95 3.256-27.826-.669-8.87-3.924-15.672-11.062-19.154-20.1-7.194-18.662 2.181-39.713 20.895-46.924z"/><path d="M82.53 341.172l11.215 29.107a7.5 7.5 0 007.873 4.753l17.45-2.045c6.381 8.242 19.703.55 12.986-7.764a79.585 79.585 0 01-3.382-4.485 7.495 7.495 0 00-7.024-3.157l-15.996 1.875-7.031-18.247 13.117-9.345a7.5 7.5 0 003.09-7.054 79.724 79.724 0 01.624-24.182 7.509 7.509 0 00-2.736-7.214l-12.608-9.953 7.968-17.904 15.896 2.646a7.511 7.511 0 003.967-.415 7.517 7.517 0 003.193-2.389 80.128 80.128 0 0117.572-16.694 7.503 7.503 0 003.165-7.021l-1.853-15.961 18.326-7.063 9.337 13.078a7.5 7.5 0 007.057 3.082 80.108 80.108 0 0124.231.586 7.509 7.509 0 007.19-2.727l10.011-12.628 17.922 7.928-2.669 15.841a7.502 7.502 0 002.812 7.184 79.728 79.728 0 0116.689 17.511 7.5 7.5 0 007.024 3.157l15.996-1.875 7.03 18.247-13.118 9.345a7.506 7.506 0 00-3.089 7.054 79.68 79.68 0 01-.623 24.18 7.509 7.509 0 002.734 7.214l12.609 9.955-7.968 17.904-15.896-2.646a7.517 7.517 0 00-7.16 2.805 80.123 80.123 0 01-17.572 16.693 7.506 7.506 0 00-3.165 7.022l1.853 15.961-18.326 7.062-9.337-13.078a7.502 7.502 0 00-7.058-3.082 80.043 80.043 0 01-24.231-.585 7.492 7.492 0 00-7.19 2.725l-10.01 12.629-17.924-7.928a7.505 7.505 0 00-6.176-8.479c-4.085-.692-7.954 2.065-8.642 6.149l-.941 5.585a7.498 7.498 0 004.362 8.105l28.56 12.633a7.5 7.5 0 008.911-2.2l10.91-13.763a95.24 95.24 0 0019.755.479l10.178 14.256a7.5 7.5 0 008.802 2.641l29.174-11.241a7.505 7.505 0 004.753-7.864l-2.02-17.399a95.063 95.063 0 0014.326-13.611l17.324 2.884a7.5 7.5 0 008.084-4.349l12.697-28.531a7.502 7.502 0 00-2.205-8.938l-13.751-10.854a94.636 94.636 0 00.507-19.699l14.304-10.188a7.5 7.5 0 002.646-8.806l-11.215-29.106a7.503 7.503 0 00-7.872-4.753l-17.441 2.044a94.678 94.678 0 00-13.594-14.265l2.91-17.275a7.5 7.5 0 00-4.361-8.106l-28.56-12.632a7.49 7.49 0 00-8.913 2.199l-10.909 13.764a95.032 95.032 0 00-19.755-.479l-10.177-14.261a7.502 7.502 0 00-8.802-2.641l-29.173 11.242a7.501 7.501 0 00-4.753 7.864l2.02 17.399a95.056 95.056 0 00-14.326 13.61l-17.324-2.883a7.51 7.51 0 00-8.084 4.349l-12.697 28.531a7.5 7.5 0 002.205 8.937l13.75 10.855a94.695 94.695 0 00-.506 19.698l-14.303 10.189a7.505 7.505 0 00-2.65 8.808z"/></g><defs><clipPath id="clip0_1_7"><path fill="#fff" d="M0 0h512v512H0z"/></clipPath></defs></svg>