<svg width="512" height="512" fill="none" xmlns="http://www.w3.org/2000/svg"><path d="M16.047 15.047h72.629V0H1v512h288.063v-15.047H16.046l.001-481.906z" fill="#000"/><path d="M432.848 273.445V156.7L276.148 0H112.723v15.047h152.785V167.34h47.601v-15.047h-32.554V25.687L407.16 152.293h-70.008v15.047h80.649v98.75c-15.38-6.297-31.957-9.598-48.586-9.598-70.445 0-127.754 57.309-127.754 127.754C241.46 454.688 298.77 512 369.215 512c70.441 0 127.754-57.313 127.754-127.754.004-45.933-24.453-87.973-64.121-110.8v-.001zm-63.633 223.508c-62.149 0-112.707-50.558-112.707-112.707 0-62.148 50.558-112.707 112.707-112.707 18.512 0 36.203 4.371 52.59 12.992 37.082 19.633 60.12 57.844 60.12 99.715 0 62.149-50.562 112.707-112.71 112.707z" fill="#000"/><path d="M442.215 344.57l-33.324-33.32-16.121 16.121v-22.785h-47.11v22.785l-16.12-16.121-33.321 33.32 16.12 16.125h-22.784v47.106h22.785l-16.121 16.12 33.32 33.325 16.121-16.121v22.785h47.11v-22.785l16.12 16.121 33.325-33.324-16.121-16.121h22.785v-47.11h-22.785l16.121-16.121zm-8.383 31.168v17.016h-24.668l-1.762 5.035a40.512 40.512 0 01-1.62 3.918l-2.27 4.79 17.425 17.425-12.046 12.043-17.426-17.426-4.793 2.27a40.555 40.555 0 01-3.91 1.625l-5.04 1.761v24.664h-17.015v-24.664l-5.035-1.761a40.803 40.803 0 01-3.918-1.625l-4.79-2.27-17.425 17.426-12.043-12.043 17.426-17.43-2.274-4.789a39.26 39.26 0 01-1.62-3.914l-1.762-5.035h-24.664v-17.016h24.664l1.761-5.035a41.22 41.22 0 011.621-3.914l2.274-4.793-17.426-17.426 12.043-12.043 17.426 17.426 4.789-2.27a40.795 40.795 0 013.918-1.624l5.035-1.762v-24.664h17.016v24.664l5.039 1.762a39.07 39.07 0 013.91 1.625l4.793 2.27 17.426-17.427 12.046 12.043-17.425 17.426 2.265 4.79a39.586 39.586 0 011.625 3.917l1.762 5.035h24.668z" fill="#000"/><path d="M369.215 360.691c-12.988 0-23.555 10.567-23.555 23.555 0 12.984 10.567 23.555 23.555 23.555s23.555-10.57 23.555-23.555c0-12.988-10.567-23.555-23.555-23.555zm0 32.063c-4.692 0-8.508-3.817-8.508-8.508 0-4.691 3.816-8.508 8.508-8.508 4.691 0 8.508 3.817 8.508 8.508 0 4.692-3.817 8.508-8.508 8.508zM40.586 120.23h144.277v15.047H40.586V120.23zm.492-17.015h63.137V40.078H41.078v63.137zm15.047-48.09h33.043v33.043H56.125V55.125zm65.105-15.047v63.137h63.141V40.078H121.23zm48.094 48.09h-33.047V55.125h33.047v33.043zM41.078 239.969h15.047V183.37h129.23V312.6H56.125v-48.585H41.078v63.632h159.324V168.324H41.078v71.645zm-.492 112.707H208.91v15.047H40.586v-15.047zm0 32.062H208.91v15.047H40.586v-15.047zm0 32.062H208.91v15.048H40.586V416.8zm0 32.063H208.91v15.047H40.586v-15.047z" fill="#000"/><path d="M113.215 223.938v16.523H96.69v15.047h16.524v16.523h15.047v-16.523h16.523V240.46h-16.523v-16.524l-15.046.002zm103.707-55.614h16.031v15.047h-16.031v-15.047zm0 32.059h176.34v15.047h-176.34v-15.047zm0 32.062h96.187v15.047h-96.187v-15.047zm0 32.063h16.031v15.047h-16.031v-15.047z" fill="#000"/></svg>