<svg height="512" viewBox="0 0 59 60" width="512" xmlns="http://www.w3.org/2000/svg" fill="#6b6b6a"><g id="041---Forging"><path id="Shape" d="M59 55a1 1 0 00-1-1h-1v-4a1 1 0 00-2 0v4H19v-4a1 1 0 00-2 0v4h-1a1 1 0 00-1 1v4a1 1 0 001 1h42a1 1 0 001-1zm0-31a1 1 0 00-1-1H16a1 1 0 00-1 1v10a1 1 0 001 1h42a1 1 0 001-1zm-38 4h-2a1 1 0 010-2h2a1 1 0 010 2zm29 0H25a1 1 0 010-2h25a1 1 0 010 2z"/><path id="Shape" d="M52 52c-3.009-5.856-3.615-9.144-1.154-15H23.154c2.461 5.856 1.855 9.144-1.154 15zM1.033 26.289C1.859 32 5.287 33 13 33v-8H1.859c-.573 0-.922.629-.826 1.289zM14 1v11a1 1 0 002 0V1a1 1 0 00-2 0zM7 16h5a1 1 0 000-2H7a1 1 0 000 2zm-.707-8.293l4 4a1 1 0 001.414-1.414l-4-4a1 1 0 00-1.414 1.414zm-5-6.414a1 1 0 000 1.414l2 2a1 1 0 001.414-1.414l-2-2a1 1 0 00-1.414 0zM1 16h2a1 1 0 000-2H1a1 1 0 000 2zM27 0a3 3 0 00-3 3v15a3 3 0 003 3h8a3 3 0 003-3V3a3 3 0 00-3-3zm-8 9.9v1.2a2 2 0 001.95 2l1.05.03V7.87l-1.05.03a2 2 0 00-1.95 2zM59 9a2 2 0 00-2.05-2L40 7.42v6.16l10 .25V11a1 1 0 012 0v2.85c0 .01-.01.02-.01.03l2.01.05V11a1 1 0 012 0v2.95c0 .01-.01.02-.01.03l.96.02A2 2 0 0059 12z"/></g></svg>