<svg xmlns="http://www.w3.org/2000/svg" viewBox="0 0 48 48" fill="#6b6b6a"><path d="M45 34a8.08 8.08 0 00-1.93.22l2.87-7.88a1 1 0 00-.49-1.23L43 23.88V17a1 1 0 00-1-1h-3v-3a1 1 0 00-1-1h-2v-1a1 1 0 00-2 0v1h-2a1 1 0 00-1 1v3h-3a1 1 0 00-1 1v6.88l-2.45 1.23a1 1 0 00-.49 1.23L27.21 35l-.22.12A5.14 5.14 0 0124 36a5.14 5.14 0 01-3-.87 7.86 7.86 0 00-2-.88V30h2a1 1 0 001-1v-4a1 1 0 00-1-1H3a1 1 0 000 2h17v2H3a1 1 0 000 2h1v4.06A10 10 0 003 34a1 1 0 000 2 5.14 5.14 0 013 .87A7.11 7.11 0 0010 38a7.1 7.1 0 004-1.13 5.17 5.17 0 013-.87 5.18 5.18 0 013 .87A7 7 0 0024 38a7.14 7.14 0 004-1.13 5.12 5.12 0 013-.87 5.18 5.18 0 013 .87A7 7 0 0038 38a7.11 7.11 0 004-1.13 5.18 5.18 0 013-.87 1 1 0 000-2zm-39 .61V30h1v5.14c-.31-.14-.64-.36-1-.53zm7 .52a5.17 5.17 0 01-3 .87 7.23 7.23 0 01-1-.07V30h5v4.61c-.37.16-.69.39-1 .52zm3-1.07V30h1v4c-.37 0-.69 0-1 .06zm25-11.18l-5-2.5V18h5zM33 14h4v2h-4zm-4 4h5v2.38l-5 2.5zm6 4.12l8.76 4.38-.53 1.43-7.79-3.83a1 1 0 00-.88 0l-7.79 3.83-.53-1.43zM31 34a7.64 7.64 0 00-1.94.23l-1.6-4.4L34 26.61v8a6.89 6.89 0 00-3-.61zm5 1.65v-9l6.54 3.22-2 5.57A5 5 0 0138 36a5.07 5.07 0 01-2-.35z" data-name="Layer 6"/></svg>