<svg height="512" width="512" xmlns="http://www.w3.org/2000/svg" fill="#6b6b6a"><g id="outline"><path d="M96 368h16v16H96zm32 0h16v16h-16zm264-40h64v16h-64zm-40-64h16v16h-16zm-24 64h16v16h-16zm-88-64a24 24 0 10-24-24 24.027 24.027 0 0024 24zm0-32a8 8 0 11-8 8 8.009 8.009 0 018-8zM48 248h16v16H48zm32 0h16v16H80zm0 32h16v16H80zm-32 0h16v16H48z"/><path d="M488 32H280a8 8 0 00-8 8v32a8 8 0 008 8h28.686L336 107.314V116a4 4 0 01-8 0v-4a8 8 0 00-16 0v4a20 20 0 0040 0v-8.686L379.314 80H400v72H239.962a4.707 4.707 0 00-.608.038 7.956 7.956 0 00-3.185.937l-80.326 43.815-22.721-18.938A8 8 0 00128 176H63.934a7.987 7.987 0 00-5.591 2.34l-40 40A7.977 7.977 0 0016 224v240a8 8 0 008 8h456a8 8 0 008-8V208a8 8 0 00-3.562-6.656L448 177.052V80h40a8 8 0 008-8V40a8 8 0 00-8-8zm-48 32h-16l8-10.667zm-64 0l8-10.667L392 64zm-72-16h16l-8 10.667zm32 5.333L344 64h-16zM352 48h16l-8 10.667zm48 0h16l-8 10.667zm48 0h16l-8 10.667zm-160 5.333L296 64h-8zm56 39.354L331.314 80h25.372zM432 160h-9.578L416 155.719V144h16zm-88 272v24h-59.69l27-60.751A8 8 0 00304 384h-64a7.994 7.994 0 00-3.578.845L206.111 400H176v-24h232v16h-24a8 8 0 00-8 8v24h-24a8 8 0 00-8 8zM32 360V232h80v104H96a24 24 0 00-48 0v24zm440-112v16h-56v16h56v16h-72v-48zm-136 48v-48h48v48zm24 64h-48v-48h48zm-24-128v-16h64v16zm-96-62.887l80 43.636V296h-16a8 8 0 00-8 8v56h-16v-40a40 40 0 00-80 0v40h-24v-16a8 8 0 00-8-8h-8V212.751zM264 360h-48v-40a24 24 0 0148 0zm-120-24h-16V232h16zm-80 8v-8a8 8 0 1116 0h-8a8 8 0 00-8 8zm16 8h80v48H80zm-13.394 64H208a7.994 7.994 0 003.578-.845L241.889 400h49.8l-10.667 24H68.892zM376 360v-48h96v48zm96-128h-24v-16h24zm-40 0h-16v-16h16zm-16-32v-24h1.578L432 185.615V200zm16-72h-16v-16h16zm-32 72h-69.959l-58.667-32H400zm-274.9-8l18.913 15.763c0 .08-.016.157-.016.237v8h-21.433l-33.6-24zm-60.238 2.449L95.036 216H43.313zM32 376h32v24h-8a8 8 0 00-7.692 10.2L61.394 456H32zm46.034 80l-4.571-16h200.449l-7.112 16zM472 456H360v-16h24a8 8 0 008-8v-24h24a8 8 0 008-8v-24h48zm-18.422-256H448v-3.719zM432 96h-16V80h16zm40-32l8-10.667V64z"/></g></svg>