<svg id="_x33_0" height="512" viewBox="0 0 64 64" width="512" xmlns="http://www.w3.org/2000/svg" fill="#6b6b6a"><circle cx="16" cy="6" r="1"/><path d="M13 17h.666L16 15.25 18.334 17H21v-6h26v5h2v-5h2c1.103 0 2-.897 2-2V3c0-1.103-.897-2-2-2H16c-2.757 0-5 2.243-5 5v11h1zm0-2v-2l1.334 1zm12-6h-2l1-1.333zm.25-3L27 3.667 28.75 6 27 8.333zM30 7.667L31 9h-2zM31.25 6L33 3.667 34.75 6 33 8.333zM36 7.667L37 9h-2zM37.25 6L39 3.667 40.75 6 39 8.333zM42 7.667L43 9h-2zM43.25 6L45 3.667 46.75 6 45 8.333zM48 7.667L49 9h-2zM49.25 6L51 3.667v4.667zM48 4.333L47 3h2zm-6 0L41 3h2zm-6 0L35 3h2zm-6 0L29 3h2zm-6 0L23 3h2zM22.75 6L21 8.333V3.667zm-9.084 5h4.668L16 12.75zm4 3L19 13v2zM13 6c0-1.654 1.346-3 3-3h3v6h-6zm2 21h10v10.586L26.414 39H29V29c0-2.206-1.794-4-4-4H7v2h6v6H7v4h8zm-4-8h10v4H11z"/><path d="M17 29h6v8h-6zM7 29h4v2H7zm53.168 10.09l-1.354.902A5.98 5.98 0 0155.486 41h-29.9l-2-2H3.764a.765.765 0 00-.738.961L4.4 45h38.71a6.975 6.975 0 019.778 0H61v-5.465c0-.401-.5-.666-.832-.445zM48 55c2.757 0 5-2.243 5-5s-2.243-5-5-5-5 2.243-5 5 2.243 5 5 5zm0-7a2 2 0 11.001 3.999A2 2 0 0148 48z"/><path d="M55 50c0 3.86-3.141 7-7 7s-7-3.14-7-7c0-1.075.251-2.089.685-3H4.946l2.813 10.315A5.01 5.01 0 0012.583 61H46c7.934 0 14.431-6.195 14.949-14h-6.634c.434.911.685 1.925.685 3zm-8-32h2v2h-2z"/><path d="M51 22h-6v-4h-4v14h14.001L55 18h-4z"/></svg>