<svg version="1.1" id="Capa_1" xmlns="http://www.w3.org/2000/svg" x="0" y="0" viewBox="0 0 480.007 480.007" xml:space="preserve" fill="#6b6b6a"><path d="M477.663 178.304l-13.656-13.656V143.96c-.084-75.076-60.924-135.916-136-136h-16c-75.076.084-135.916 60.924-136 136v192c.084 75.076 60.924 135.916 136 136h16c75.076-.084 135.916-60.924 136-136v-20.688l13.656-13.656a8 8 0 002.344-5.656v-112a7.995 7.995 0 00-2.344-5.656zM448.007 335.96c-.075 66.243-53.757 119.925-120 120h-16c-66.243-.075-119.925-53.757-120-120v-192c.075-66.243 53.757-119.925 120-120h16c66.243.075 119.925 53.757 120 120v16h-16v-16c-.066-57.41-46.59-103.934-104-104h-16c-57.41.066-103.934 46.59-104 104v192c.066 57.41 46.59 103.934 104 104h16c57.41-.066 103.934-46.59 104-104v-16h16v16zm-45.656-34.344l13.656 13.656v20.688c-.057 48.577-39.423 87.943-88 88h-16c-48.577-.057-87.943-39.423-88-88v-192c.057-48.577 39.423-87.943 88-88h16c48.577.057 87.943 39.423 88 88v20.688l-13.656 13.656a8 8 0 00-2.344 5.656v112a8.005 8.005 0 002.344 5.656zm61.656-8.968l-11.312 11.312h-25.376l-11.312-11.312V271.96h48v20.688zm0-36.688h-48v-32h48v32zm0-48h-48v-20.688l11.312-11.312h25.376l11.312 11.312v20.688z"/><path d="M432.007 279.96h16v16h-16zM149.663 18.304a8.497 8.497 0 00-11.712.4c-3.432 3.424-7.376 7.08-11.616 11.008-2.52 2.336-5.24 4.904-7.936 7.448C106.657 7.12 72.786-7.713 42.746 4.029 20.396 12.765 5.666 34.284 5.607 58.28c0 2 .096 4.104.288 6.192l9.408 89.184c-12.28 4.701-18.424 18.466-13.724 30.746a23.793 23.793 0 004.668 7.558c-8.32 9.044-8.32 22.956 0 32-8.32 9.044-8.32 22.956 0 32-8.32 9.044-8.32 22.956 0 32-8.875 9.702-8.204 24.761 1.498 33.636a23.811 23.811 0 007.558 4.668l-9.408 89.184c-3.455 32.01 19.693 60.76 51.703 64.216 24.141 2.606 47.369-10.025 58.305-31.704.8.736 1.656 1.6 2.4 2.28 4.24 3.928 8.184 7.584 12 11.408a8 8 0 0011.312 0l24-24a8 8 0 000-11.312l-3.68-3.68c-2.032-2.04-4.464-4.368-7.2-6.968a312.59 312.59 0 01-38.136-41.864 79.468 79.468 0 01-12.472-45.864c13.193-.02 23.872-10.731 23.852-23.924a23.886 23.886 0 00-6.252-16.076c8.32-9.044 8.32-22.956 0-32 8.32-9.044 8.32-22.956 0-32 8.32-9.044 8.32-22.956 0-32 8.875-9.702 8.204-24.761-1.498-33.636a23.811 23.811 0 00-7.558-4.668l3-28.592a63.358 63.358 0 018.944-18.912 312.58 312.58 0 0138.152-41.888c2.712-2.6 5.144-4.928 7.2-6.968l3.68-3.68a8 8 0 00.016-11.312l-24-24zM64.007 15.96c21.632-.002 39.797 16.281 42.152 37.784a35.77 35.77 0 01.296 4.4 38 38 0 01-.248 4.624l-6.248 59.048a130.378 130.378 0 00-3.848 30.144H81.175l9.112-90.864c1.389-14.514-9.252-27.406-23.766-28.794s-27.406 9.252-28.794 23.766a26.405 26.405 0 000 5.029l9.416 90.864H31.207l-9.384-89.064a46.909 46.909 0 01-.216-4.616c.045-23.387 19.015-42.321 42.4-42.321zm10.36 43.504l-6.2 61.784a170.876 170.876 0 00-3.952 30.712h-1.008l-9.56-92.496c-.503-5.722 3.727-10.768 9.449-11.271 5.722-.503 10.768 3.727 11.271 9.449.054.606.054 1.215 0 1.822zM64.007 463.96c-23.417.018-42.415-18.95-42.433-42.367a42.569 42.569 0 01.233-4.473l9.4-89.16h15.928l-9.392 90.816c-1.611 14.491 8.831 27.544 23.322 29.155 14.491 1.611 27.544-8.831 29.155-23.322.129-1.161.181-2.329.155-3.497a179.799 179.799 0 0013.296 14.944c-6.034 16.719-21.889 27.872-39.664 27.904zm10.4-43.504c.503 5.722-3.727 10.768-9.449 11.271-5.722.503-10.768-3.727-11.271-9.449a10.47 10.47 0 010-1.823l6.456-62.4a151.186 151.186 0 0012.128 34.592h-.2l2.336 27.809zm69.32 6.704l.032.032c1.784 1.72 3.448 3.312 4.952 4.8l-12.792 12.768c-2.12-2.016-4.376-4.096-6.712-6.264-3.448-3.2-7.104-6.592-10.88-10.224A141.86 141.86 0 0172.183 327.96h15.912a95.366 95.366 0 0015.576 55.152 329.63 329.63 0 0040.056 44.048zm-39.72-115.2h-80a8 8 0 010-16h80a8 8 0 010 16zm0-32h-80a8 8 0 010-16h80a8 8 0 010 16zm0-32h-80a8 8 0 010-16h80a8 8 0 010 16zm0-32h-80a8 8 0 010-16h80a8 8 0 010 16zm0-32h-80a8 8 0 010-16h80a8 8 0 010 16zm47.72-131.2a386.902 386.902 0 00-31.912 33.528l1.424-13.48.88-8.264c.268-2.658.349-5.331.24-8v-.912c1.32-1.344 2.664-2.64 4-3.896 3.752-3.608 7.408-7 10.856-10.2a626.598 626.598 0 006.712-6.264l12.752 12.688c-1.472 1.456-3.168 3.048-4.952 4.8z"/></svg>