<svg height="512" viewBox="0 0 60 60" width="512" xmlns="http://www.w3.org/2000/svg" fill="#6b6b6a"><g id="027---Circular-Saw"><path id="Shape" d="M30 35c5.523 0 10-4.477 10-10s-4.477-10-10-10-10 4.477-10 10 4.477 10 10 10zm0-18a8 8 0 110 16 8 8 0 010-16zm5.3 19.86a1 1 0 10.81 1.83 14.91 14.91 0 007.58-7.58 1 1 0 10-1.83-.81 12.84 12.84 0 01-6.56 6.56zM24.7 13.14a1 1 0 10-.81-1.83 14.91 14.91 0 00-7.58 7.58 1 1 0 001.83.81 12.84 12.84 0 016.56-6.56z"/><path id="Shape" d="M30 28a3 3 0 100-6 3 3 0 000 6zm0-4a1 1 0 110 2 1 1 0 010-2z"/><circle id="Oval" cx="28" cy="11" r="1"/><path id="Shape" d="M57 40h-6.86a8.52 8.52 0 00-1.52-9.32c.302-.98.522-1.984.66-3a6.69 6.69 0 014 1.73 1 1 0 001.72-.73 8.61 8.61 0 00-6-8.07 18.28 18.28 0 00-1-2.94 7 7 0 014.6-.48 1 1 0 00.8-1.59c-.45-.7-3.64-5.23-9.21-3.88A22.1 22.1 0 0042 9.64 6.81 6.81 0 0145.45 7a1 1 0 00.23-1.83 8.61 8.61 0 00-10 1.19 18.74 18.74 0 00-3-.66 6.73 6.73 0 011.73-4 1 1 0 00-.73-1.7 8.58 8.58 0 00-8.07 6 18.94 18.94 0 00-2.94 1 6.75 6.75 0 01-.51-4.35 1 1 0 00-1.48-1.11 8.6 8.6 0 00-3.95 9.27 21.13 21.13 0 00-2.09 2.27A6.81 6.81 0 0112 9.55a1 1 0 00-1.83-.23 8.59 8.59 0 001.19 10 18.74 18.74 0 00-.66 3 6.69 6.69 0 01-4-1.73 1 1 0 00-1.7.73 8.61 8.61 0 006 8.07 18.28 18.28 0 001 2.94 6.75 6.75 0 01-4.35.51 1 1 0 00-1.11 1.48 8.6 8.6 0 009.27 4A20.07 20.07 0 0017.64 40H3a3 3 0 00-3 3v1a3 3 0 003 3v12a1 1 0 001 1h52a1 1 0 001-1V47a3 3 0 003-3v-1a3 3 0 00-3-3zm-13.57 0c-.04-.26-.09-.52-.15-.78A22.1 22.1 0 0045.36 37a6.6 6.6 0 012.45 3zm-23.51-.75c-3-2.14-3-3.41-4.11-3.06A6.21 6.21 0 019.71 35a7.85 7.85 0 004.11-1.45 1 1 0 00.32-1.22c-1.56-3.37-.9-4.45-2-4.7a6.19 6.19 0 01-4.66-4.12 7.74 7.74 0 004.28.81 1 1 0 00.89-.91 16.64 16.64 0 01.85-4 1 1 0 00-.27-1.07 6.17 6.17 0 01-2-5.89 7.73 7.73 0 003.31 2.83 1 1 0 001.22-.34c2.14-3 3.4-3 3.06-4.1A6.21 6.21 0 0120 4.71a7.85 7.85 0 001.45 4.11 1 1 0 001.22.32c3.41-1.56 4.45-.91 4.7-2a6.19 6.19 0 014.12-4.66 7.74 7.74 0 00-.81 4.28 1 1 0 00.91.89 16.53 16.53 0 014 .85 1 1 0 001.07-.27 6.17 6.17 0 015.89-2 7.73 7.73 0 00-2.83 3.31 1 1 0 00.33 1.22c3 2.14 3 3.4 4.11 3.06A6.16 6.16 0 0150.27 15a7.69 7.69 0 00-4.09 1.44 1 1 0 00-.32 1.22c1.56 3.37.9 4.45 2 4.7a6.19 6.19 0 014.66 4.12 7.74 7.74 0 00-4.28-.81 1 1 0 00-.89.91 16.64 16.64 0 01-.85 4 1 1 0 00.27 1.07 6.17 6.17 0 012 5.89 7.73 7.73 0 00-3.31-2.83 1 1 0 00-1.22.34c-2.14 3-3.4 3-3.06 4.09.084.269.151.543.2.82H20.32a1 1 0 00-.4-.71zM55 58H5V47h50zm3-14a1 1 0 01-1 1H3a1 1 0 01-1-1v-1a1 1 0 011-1h54a1 1 0 011 1z"/><path id="Shape" d="M8 51h2a1 1 0 000-2H8a1 1 0 000 2zm6 0h17a1 1 0 000-2H14a1 1 0 000 2zM48 2v4a1 1 0 002 0V2a1 1 0 00-2 0zm5 9h4a1 1 0 000-2h-4a1 1 0 000 2zm2.71-6.29a1.004 1.004 0 10-1.42-1.42l-3 3a1.004 1.004 0 001.42 1.42z"/></g></svg>